<svg xmlns="http://www.w3.org/2000/svg" xmlns:xlink="http://www.w3.org/1999/xlink" width="512" zoomAndPan="magnify" viewBox="0 0 384 383.999986" height="512" preserveAspectRatio="xMidYMid meet" version="1.0"><defs><g/><clipPath id="324b8c7d8b"><rect x="0" width="210" y="0" height="345"/></clipPath></defs><rect x="-38.4" width="460.8" fill="#ffffff" y="-38.399999" height="460.799983" fill-opacity="1"/><rect x="-38.4" width="460.8" fill="#0f172a" y="-38.399999" height="460.799983" fill-opacity="1"/><g transform="matrix(1, 0, 0, 1, 87, 16)"><g clip-path="url(#324b8c7d8b)"><g fill="#ffffff" fill-opacity="1"><g transform="translate(0.446375, 270.530782)"><g><path d="M 77.828125 0 L 5.53125 -206.328125 L 52.34375 -206.328125 L 85.4375 -106.625 C 89.40625 -94.070312 93.441406 -80.289062 97.546875 -65.28125 C 101.660156 -50.28125 106.023438 -33.921875 110.640625 -16.203125 L 100.8125 -16.203125 C 105.332031 -34.109375 109.578125 -50.515625 113.546875 -65.421875 C 117.515625 -80.335938 121.394531 -94.070312 125.1875 -106.625 L 157.171875 -206.328125 L 203.5625 -206.328125 L 132.9375 0 Z M 77.828125 0 "/></g></g></g></g></g></svg>